<svg width="610" height="217" viewBox="0 0 610 217" fill="none" xmlns="http://www.w3.org/2000/svg">
<rect x="54.6133" y="76.749" width="11.4894" height="83.4444" transform="rotate(-12.8576 54.6133 76.749)" fill="url(#paint0_linear_1427_1189)"/>
<path d="M64.4521 31.3642C84.0672 30.3352 100.823 45.0768 101.887 64.2988C102.845 81.6083 90.7509 96.6512 74.0127 100.245C85.1426 93.8351 92.3141 81.7629 91.5654 68.3242C90.4945 49.1022 73.627 34.3605 53.8809 35.3896C51.9951 35.4879 50.1512 35.7268 48.3594 36.0947C53.1073 33.3627 58.5746 31.6726 64.4521 31.3642Z" fill="url(#paint1_linear_1427_1189)"/>
<mask id="mask0_1427_1189" style="mask-type:alpha" maskUnits="userSpaceOnUse" x="0" y="0" width="134" height="133">
<path d="M74.8311 0C77.0057 0.0611811 80.6004 1.11429 82.792 1.67383C84.9561 2.22743 87.1342 2.72609 89.3232 3.1709C90.0021 7.74227 89.4277 13.1398 90.0938 17.7646C90.3044 19.2257 93.9604 20.9324 95.2637 21.6113C96.8197 20.9439 98.217 19.8595 99.7012 19.1299C102.759 17.6268 105.764 15.6794 108.825 14.2529C110.886 16.8095 116.816 21.6705 118.867 24.7129C119.023 25.0385 118.975 25.7063 118.803 26.0127C116.599 29.9281 113.626 34.0529 111.751 38.1172C112.1 39.6954 113.807 42.2832 114.722 43.6777C119.567 44.006 124.923 44.0491 129.722 44.5645C131.117 48.684 131.971 54.5545 133.069 58.8818C131.187 60.0988 129.235 61.203 127.222 62.1885C125.032 63.2585 121.472 64.6236 119.742 66.1934C119.173 67.8172 119.239 71.1351 119.255 72.9541C121.434 74.5083 123.448 76.0846 125.572 77.6816C127.882 79.4176 129.241 80.0002 131.233 82.1719C130.927 83.5022 127.368 95.261 126.104 95.3379C121.863 95.5956 115.992 93.9473 111.672 94.3789C110.502 94.4957 107.55 99.5004 107.06 100.578C108.503 105.057 110.777 109.938 112.176 114.535C110.471 116.361 103.192 122.111 100.935 123.086C97.547 120.735 92.6487 115.738 89.2686 114.155C85.2364 115.226 82.8687 116.805 80.1064 118.778C79.3172 122.089 78.359 129.968 78.0459 131.686C75.2425 132.535 67.5807 132.976 64.625 132.741C63.8251 131.327 63.6488 130.21 63.1465 128.777C62.1454 125.922 60.9803 121.165 59.3721 118.709C58.4641 117.853 52.6797 116.791 51.1396 116.491C47.6024 118.772 43.5931 124.769 39.6523 127.114C36.7493 125.375 30.5698 122.271 28.4414 120.552C28.6176 116.621 31.159 110.151 31.9502 105.906C30.7624 104.428 27.8704 101.349 26.5645 99.9785C25.2912 98.6425 20.26 100.486 18.3389 100.828C16.2005 101.208 13.4471 102.185 11.084 102.419C9.93784 101.261 5.29428 91.9898 4.76758 90.2324C5.45172 89.3758 6.41782 88.7263 7.1543 87.9707C9.77346 85.2839 13.5617 82.4845 15.6748 79.4697C15.5631 77.6655 14.7901 73.6931 14.1348 72.0801C13.4228 70.329 7.70306 69.0336 5.94043 68.3779C3.96234 67.642 1.95371 66.8319 0 66.0928C0.222672 62.7967 0.698071 55.4791 1.61523 52.623C3.71288 51.0471 13.2772 50.6307 16.7881 48.9541C17.5164 47.9002 18.7969 43.9829 19.5 42.4072C17.4467 38.1872 13.081 34.2659 10.7695 29.8877C11.7739 28.3888 18.3046 19.8438 19.4736 19.1572C19.876 18.9216 20.7826 19.254 21.1943 19.3945C25.4941 20.8631 29.0325 23.1306 33.6943 24.3311C35.8879 23.6772 38.1487 22.2155 39.5 20.334C39.4872 17.8735 38.0982 6.96572 38.8125 5.67188C40.0379 4.67547 50.3392 1.42388 52.4219 0.952148C54.0302 2.98531 55.5647 5.07613 57.0225 7.21973C58.218 8.97144 59.9758 11.988 61.4336 13.3027C62.8556 13.4507 66.14 13.3313 67.5762 13.1572C68.5373 11.9757 69.1119 10.4566 69.8584 9.14355C71.5284 6.20619 73.0714 2.85586 74.8311 0ZM100.967 64.2783C99.9247 45.068 83.5138 30.3358 64.3027 31.3643C45.0728 32.394 30.3223 48.8243 31.3652 68.0537C32.4083 87.283 48.8494 102.022 68.0781 100.966C87.2878 99.9104 102.009 83.4887 100.967 64.2783Z" fill="url(#paint2_linear_1427_1189)"/>
</mask>
<g mask="url(#mask0_1427_1189)">
<path d="M82.8459 130.908C92.3824 128.467 101.282 124.003 108.942 117.82C116.603 111.636 122.843 103.878 127.242 95.0716C131.641 86.2648 134.094 76.6151 134.436 66.7769C134.778 56.9387 133.001 47.1419 129.224 38.0509C125.448 28.9599 119.761 20.7872 112.549 14.087C105.337 7.38672 96.7682 2.31563 87.4242 -0.782477C78.0803 -3.88059 68.1794 -4.93327 58.3929 -3.86915C48.6064 -2.80503 39.1631 0.351008 30.7034 5.38497L65.815 64.3912L82.8459 130.908Z" fill="url(#paint3_radial_1427_1189)"/>
</g>
<path d="M129.03 99.1151L129.065 99.0374C147.961 108.975 160.846 128.798 160.846 151.63C160.846 184.428 134.259 211.015 101.462 211.015C91.2478 211.015 81.6361 208.436 73.2422 203.894C77.176 204.891 81.296 205.421 85.5397 205.421C113.108 205.421 135.457 183.072 135.457 155.503C135.457 139.413 127.843 125.102 116.023 115.973L110.592 102.769C111.676 100.238 111.752 99.4846 114.207 97.707L129.03 99.1151Z" fill="url(#paint4_linear_1427_1189)"/>
<path d="M140.197 107.074C152.839 117.964 160.845 134.088 160.845 152.083C160.845 184.88 134.257 211.468 101.46 211.468C91.246 211.468 81.6342 208.888 73.2402 204.347C73.3447 204.373 73.4499 204.398 73.5547 204.424C80.1924 206.151 87.2416 206.911 94.5049 206.539C130.174 204.711 157.509 176.263 155.574 142.983C154.775 129.228 149.1 116.799 140.197 107.074Z" fill="url(#paint5_linear_1427_1189)"/>
<circle cx="58.3568" cy="69.7484" r="29.892" fill="url(#paint6_radial_1427_1189)"/>
<circle cx="82.5638" cy="172.232" r="29.892" fill="url(#paint7_radial_1427_1189)"/>
<rect x="26.8203" y="37.5391" width="1.8562" height="6.49672" transform="rotate(-18.3894 26.8203 37.5391)" fill="url(#paint8_linear_1427_1189)"/>
<rect x="28.8789" y="36.8535" width="1.8562" height="6.49672" transform="rotate(-18.3894 28.8789 36.8535)" fill="url(#paint9_linear_1427_1189)"/>
<rect x="21.6426" y="32.7373" width="1.8562" height="6.49672" transform="rotate(-48.3894 21.6426 32.7373)" fill="url(#paint10_linear_1427_1189)"/>
<rect width="1.8562" height="6.49672" transform="matrix(-0.979538 -0.20126 -0.20126 0.979538 31.8301 29.3584)" fill="url(#paint11_linear_1427_1189)"/>
<rect x="9.30859" y="44.8018" width="1.8562" height="6.49672" transform="rotate(34.1498 9.30859 44.8018)" fill="url(#paint12_linear_1427_1189)"/>
<rect x="11.1074" y="46.0186" width="1.8562" height="6.49672" transform="rotate(34.1498 11.1074 46.0186)" fill="url(#paint13_linear_1427_1189)"/>
<rect x="9.96875" y="37.7725" width="1.8562" height="6.49672" transform="rotate(4.14985 9.96875 37.7725)" fill="url(#paint14_linear_1427_1189)"/>
<rect width="1.8562" height="6.49672" transform="matrix(-0.436019 -0.899938 -0.899938 0.436019 18.8477 43.8047)" fill="url(#paint15_linear_1427_1189)"/>
<rect x="23.4043" y="59.7012" width="1.8562" height="6.49672" transform="rotate(-161.915 23.4043 59.7012)" fill="url(#paint16_linear_1427_1189)"/>
<rect x="21.3457" y="59.0283" width="1.8562" height="6.49672" transform="rotate(-161.915 21.3457 59.0283)" fill="url(#paint17_linear_1427_1189)"/>
<rect x="24.7246" y="66.6396" width="1.8562" height="6.49672" transform="rotate(168.085 24.7246 66.6396)" fill="url(#paint18_linear_1427_1189)"/>
<rect width="1.8562" height="6.49672" transform="matrix(0.668021 0.744142 0.744142 -0.668021 14.5234 63.2998)" fill="url(#paint19_linear_1427_1189)"/>
<path d="M593.354 119.965H609.744V179.35H593.295L592.523 173.174C590.979 175.47 588.999 177.331 586.585 178.756C584.17 180.181 581.339 180.894 578.093 180.894C573.659 180.894 569.521 180.063 565.681 178.4C561.841 176.737 558.456 174.441 555.526 171.511C552.597 168.582 550.301 165.197 548.638 161.356C547.015 157.477 546.203 153.32 546.203 148.886C546.203 144.65 546.975 140.691 548.519 137.009C550.063 133.327 552.241 130.081 555.051 127.27C557.862 124.459 561.089 122.262 564.731 120.678C568.413 119.095 572.372 118.303 576.608 118.303C580.25 118.303 583.516 119.075 586.406 120.619C589.336 122.163 591.89 124.122 594.067 126.498L593.354 119.965ZM577.677 165.157C580.369 165.157 582.804 164.464 584.981 163.079C587.159 161.693 588.881 159.832 590.148 157.496C591.414 155.121 592.048 152.508 592.048 149.658C592.048 146.768 591.414 144.155 590.148 141.819C588.881 139.483 587.159 137.622 584.981 136.237C582.804 134.851 580.369 134.158 577.677 134.158C574.945 134.158 572.471 134.851 570.254 136.237C568.037 137.622 566.275 139.503 564.969 141.878C563.662 144.214 563.009 146.807 563.009 149.658C563.009 152.508 563.662 155.121 564.969 157.496C566.315 159.832 568.096 161.693 570.313 163.079C572.53 164.464 574.985 165.157 577.677 165.157Z" fill="url(#paint20_linear_1427_1189)"/>
<path d="M530.625 119.973H548.084L515.541 209.049H498.201L508.89 179.357L487.512 119.973H505.446L517.085 156.969L530.625 119.973Z" fill="url(#paint21_linear_1427_1189)"/>
<path d="M468.839 119.965H485.229V179.35H468.779L468.007 173.174C466.463 175.47 464.484 177.331 462.069 178.756C459.654 180.181 456.823 180.894 453.577 180.894C449.143 180.894 445.006 180.063 441.166 178.4C437.325 176.737 433.94 174.441 431.011 171.511C428.081 168.582 425.785 165.197 424.122 161.356C422.499 157.477 421.688 153.32 421.688 148.886C421.688 144.65 422.46 140.691 424.004 137.009C425.547 133.327 427.725 130.081 430.536 127.27C433.347 124.459 436.573 122.262 440.215 120.678C443.897 119.095 447.856 118.303 452.092 118.303C455.735 118.303 459.001 119.075 461.891 120.619C464.82 122.163 467.374 124.122 469.551 126.498L468.839 119.965ZM453.161 165.157C455.853 165.157 458.288 164.464 460.466 163.079C462.643 161.693 464.365 159.832 465.632 157.496C466.899 155.121 467.532 152.508 467.532 149.658C467.532 146.768 466.899 144.155 465.632 141.819C464.365 139.483 462.643 137.622 460.466 136.237C458.288 134.851 455.853 134.158 453.161 134.158C450.43 134.158 447.955 134.851 445.738 136.237C443.521 137.622 441.759 139.503 440.453 141.878C439.147 144.214 438.493 146.807 438.493 149.658C438.493 152.508 439.147 155.121 440.453 157.496C441.799 159.832 443.581 161.693 445.798 163.079C448.015 164.464 450.469 165.157 453.161 165.157Z" fill="url(#paint22_linear_1427_1189)"/>
<path d="M363.191 209.249V194.303C365.21 194.303 392.132 194.581 393.795 193.591C395.458 192.641 396.364 191.696 397.354 190.033C398.343 188.37 398.536 183.752 398.536 181.732V119.973H414.926V181.732C414.926 186.76 413.739 196.438 411.367 199.997C409.943 202.132 408.029 207.114 395.93 209.249C388.101 209.249 368.298 209.249 363.191 209.249Z" fill="url(#paint23_linear_1427_1189)"/>
<path d="M372.99 119.973H389.38V179.357H372.99V119.973Z" fill="url(#paint24_linear_1427_1189)"/>
<path d="M308.423 179.357H292.27L272.436 119.973H288.469L300.406 155.544L312.223 119.973H328.257L340.074 155.544L351.951 119.973H368.045L348.151 179.357H332.058L320.24 143.726L308.423 179.357Z" fill="url(#paint25_linear_1427_1189)"/>
<path d="M254.37 119.965H270.76V179.35H254.311L253.539 173.174C251.995 175.47 250.015 177.331 247.6 178.756C245.185 180.181 242.355 180.894 239.108 180.894C234.674 180.894 230.537 180.063 226.697 178.4C222.857 176.737 219.472 174.441 216.542 171.511C213.612 168.582 211.316 165.197 209.654 161.356C208.03 157.477 207.219 153.32 207.219 148.886C207.219 144.65 207.991 140.691 209.535 137.009C211.079 133.327 213.256 130.081 216.067 127.27C218.878 124.459 222.104 122.262 225.747 120.678C229.429 119.095 233.388 118.303 237.624 118.303C241.266 118.303 244.532 119.075 247.422 120.619C250.352 122.163 252.905 124.122 255.083 126.498L254.37 119.965ZM238.693 165.157C241.385 165.157 243.819 164.464 245.997 163.079C248.174 161.693 249.896 159.832 251.163 157.496C252.43 155.121 253.064 152.508 253.064 149.658C253.064 146.768 252.43 144.155 251.163 141.819C249.896 139.483 248.174 137.622 245.997 136.237C243.819 134.851 241.385 134.158 238.693 134.158C235.961 134.158 233.486 134.851 231.269 136.237C229.052 137.622 227.291 139.503 225.984 141.878C224.678 144.214 224.025 146.807 224.025 149.658C224.025 152.508 224.678 155.121 225.984 157.496C227.33 159.832 229.112 161.693 231.329 163.079C233.546 164.464 236 165.157 238.693 165.157Z" fill="url(#paint26_linear_1427_1189)"/>
<path d="M172.302 179.35L172.242 119.965H188.632L188.692 124.36C190.671 122.46 192.987 120.975 195.64 119.906C198.332 118.837 201.162 118.303 204.132 118.303C206.309 118.303 208.486 118.619 210.664 119.253L204.191 135.821C202.766 135.227 201.321 134.93 199.856 134.93C197.797 134.93 195.917 135.425 194.214 136.415C192.512 137.405 191.166 138.751 190.176 140.453C189.187 142.116 188.692 143.996 188.692 146.095V179.35H172.302Z" fill="url(#paint27_linear_1427_1189)"/>
<path d="M173.084 209.773V188.514H177.276V209.773H173.084ZM200.649 200.115V209.773H196.457V201.27C196.457 200.733 196.326 200.252 196.063 199.827C195.81 199.392 195.465 199.047 195.03 198.794C194.605 198.541 194.129 198.415 193.603 198.415C193.076 198.415 192.595 198.541 192.16 198.794C191.725 199.047 191.38 199.392 191.127 199.827C190.874 200.252 190.748 200.733 190.748 201.27V209.773H186.557L186.541 194.588H190.733L190.748 195.712C191.254 195.226 191.846 194.846 192.524 194.573C193.213 194.299 193.937 194.163 194.696 194.163C195.799 194.163 196.797 194.431 197.688 194.968C198.589 195.504 199.307 196.223 199.844 197.124C200.38 198.015 200.649 199.012 200.649 200.115ZM219.712 186.995H223.903V209.773H219.712V208.164C219.246 208.751 218.669 209.232 217.981 209.606C217.293 209.981 216.508 210.168 215.627 210.168C214.524 210.168 213.491 209.961 212.529 209.546C211.568 209.131 210.717 208.559 209.978 207.83C209.249 207.091 208.677 206.24 208.262 205.279C207.847 204.317 207.64 203.284 207.64 202.181C207.64 201.077 207.847 200.045 208.262 199.083C208.677 198.121 209.249 197.276 209.978 196.547C210.717 195.808 211.568 195.231 212.529 194.816C213.491 194.401 214.524 194.193 215.627 194.193C216.508 194.193 217.293 194.38 217.981 194.755C218.669 195.119 219.246 195.6 219.712 196.198V186.995ZM215.688 206.144C216.376 206.144 216.999 205.967 217.556 205.613C218.113 205.258 218.553 204.782 218.877 204.185C219.201 203.578 219.363 202.91 219.363 202.181C219.363 201.442 219.201 200.774 218.877 200.176C218.553 199.579 218.113 199.103 217.556 198.749C216.999 198.394 216.376 198.217 215.688 198.217C214.989 198.217 214.357 198.394 213.79 198.749C213.223 199.103 212.772 199.584 212.438 200.191C212.104 200.789 211.937 201.452 211.937 202.181C211.937 202.91 212.104 203.578 212.438 204.185C212.782 204.782 213.238 205.258 213.805 205.613C214.372 205.967 215 206.144 215.688 206.144ZM239.11 210.168C237.713 210.168 236.438 209.809 235.284 209.09C234.14 208.371 233.223 207.41 232.535 206.205C231.857 204.99 231.518 203.649 231.518 202.181C231.518 201.067 231.715 200.029 232.11 199.068C232.505 198.096 233.046 197.245 233.735 196.517C234.433 195.778 235.243 195.2 236.164 194.785C237.086 194.37 238.068 194.163 239.11 194.163C240.507 194.163 241.778 194.522 242.922 195.241C244.076 195.96 244.992 196.927 245.67 198.141C246.359 199.356 246.703 200.703 246.703 202.181C246.703 203.284 246.506 204.317 246.111 205.279C245.716 206.24 245.169 207.091 244.471 207.83C243.782 208.559 242.978 209.131 242.056 209.546C241.145 209.961 240.163 210.168 239.11 210.168ZM239.11 205.977C239.758 205.977 240.34 205.805 240.857 205.461C241.373 205.106 241.778 204.641 242.072 204.064C242.365 203.487 242.512 202.859 242.512 202.181C242.512 201.482 242.355 200.844 242.041 200.267C241.737 199.68 241.327 199.214 240.811 198.87C240.295 198.526 239.728 198.354 239.11 198.354C238.473 198.354 237.896 198.531 237.379 198.885C236.863 199.24 236.453 199.705 236.149 200.283C235.856 200.86 235.709 201.492 235.709 202.181C235.709 202.899 235.861 203.547 236.164 204.124C236.478 204.691 236.893 205.142 237.41 205.476C237.926 205.81 238.493 205.977 239.11 205.977ZM268.279 200.115V209.773H264.087V201.27C264.087 200.733 263.956 200.252 263.693 199.827C263.439 199.392 263.095 199.047 262.66 198.794C262.235 198.541 261.759 198.415 261.233 198.415C260.706 198.415 260.225 198.541 259.79 198.794C259.355 199.047 259.01 199.392 258.757 199.827C258.504 200.252 258.378 200.733 258.378 201.27V209.773H254.186L254.171 194.588H258.362L258.378 195.712C258.884 195.226 259.476 194.846 260.154 194.573C260.843 194.299 261.567 194.163 262.326 194.163C263.429 194.163 264.427 194.431 265.317 194.968C266.218 195.504 266.937 196.223 267.474 197.124C268.01 198.015 268.279 199.012 268.279 200.115ZM282.862 210.168C281.465 210.168 280.19 209.809 279.036 209.09C277.892 208.371 276.975 207.405 276.287 206.19C275.609 204.975 275.27 203.633 275.27 202.166C275.27 201.062 275.467 200.029 275.862 199.068C276.257 198.096 276.798 197.245 277.487 196.517C278.185 195.778 278.995 195.2 279.916 194.785C280.838 194.37 281.82 194.163 282.862 194.163C284.067 194.163 285.165 194.421 286.158 194.937C287.16 195.454 288.005 196.157 288.694 197.048C289.392 197.939 289.888 198.946 290.182 200.07C290.485 201.194 290.536 202.363 290.334 203.578H279.795C279.926 204.023 280.129 204.428 280.402 204.793C280.686 205.147 281.03 205.43 281.435 205.643C281.85 205.856 282.326 205.967 282.862 205.977C283.389 205.987 283.875 205.866 284.32 205.613C284.766 205.36 285.145 205.02 285.459 204.595L289.741 205.582C289.124 206.929 288.203 208.032 286.978 208.893C285.753 209.743 284.381 210.168 282.862 210.168ZM279.643 200.48H286.097C285.965 199.974 285.742 199.518 285.429 199.113C285.115 198.708 284.735 198.389 284.29 198.157C283.854 197.924 283.379 197.807 282.862 197.807C282.356 197.807 281.88 197.924 281.435 198.157C281 198.389 280.625 198.708 280.311 199.113C280.007 199.508 279.785 199.964 279.643 200.48ZM302.461 210.047C301.681 209.986 300.932 209.824 300.213 209.561C299.495 209.288 298.852 208.923 298.285 208.467C297.728 208.002 297.293 207.445 296.979 206.797L300.502 205.279C300.613 205.441 300.78 205.618 301.003 205.81C301.226 205.992 301.494 206.154 301.808 206.296C302.132 206.438 302.506 206.509 302.932 206.509C303.245 206.509 303.549 206.473 303.843 206.402C304.136 206.321 304.374 206.195 304.556 206.023C304.739 205.84 304.83 205.602 304.83 205.309C304.83 204.985 304.713 204.737 304.48 204.565C304.248 204.393 303.964 204.266 303.63 204.185C303.306 204.094 302.992 204.018 302.689 203.957C301.757 203.795 300.876 203.507 300.046 203.092C299.226 202.667 298.558 202.12 298.042 201.452C297.526 200.784 297.267 199.984 297.267 199.053C297.267 198.03 297.536 197.149 298.072 196.41C298.609 195.661 299.307 195.084 300.168 194.679C301.028 194.274 301.96 194.072 302.962 194.072C304.146 194.072 305.245 194.32 306.257 194.816C307.27 195.312 308.084 196.01 308.702 196.911L305.392 198.87C305.26 198.678 305.088 198.496 304.875 198.324C304.673 198.141 304.435 197.99 304.162 197.868C303.898 197.736 303.615 197.661 303.311 197.64C302.916 197.61 302.557 197.635 302.233 197.716C301.909 197.787 301.651 197.924 301.459 198.126C301.276 198.329 301.185 198.602 301.185 198.946C301.185 199.28 301.332 199.528 301.626 199.69C301.919 199.842 302.258 199.959 302.643 200.04C303.028 200.11 303.367 200.196 303.66 200.298C304.541 200.581 305.366 200.946 306.136 201.391C306.915 201.826 307.543 202.363 308.019 203.001C308.494 203.639 308.717 204.388 308.687 205.248C308.687 206.25 308.388 207.131 307.791 207.89C307.194 208.64 306.419 209.212 305.468 209.606C304.526 209.991 303.524 210.138 302.461 210.047ZM316.018 194.588H320.209V209.773H316.018V194.588ZM318.144 192.842C317.536 192.842 317.025 192.639 316.61 192.234C316.195 191.829 315.987 191.328 315.987 190.731C315.987 190.134 316.195 189.632 316.61 189.228C317.025 188.823 317.531 188.62 318.128 188.62C318.726 188.62 319.227 188.823 319.632 189.228C320.047 189.632 320.254 190.134 320.254 190.731C320.254 191.328 320.052 191.829 319.647 192.234C319.252 192.639 318.751 192.842 318.144 192.842ZM339.742 194.588H343.933V209.773H339.726L339.529 208.194C339.134 208.781 338.628 209.257 338.01 209.622C337.393 209.986 336.669 210.168 335.839 210.168C334.705 210.168 333.647 209.956 332.665 209.53C331.683 209.105 330.818 208.518 330.068 207.769C329.319 207.02 328.732 206.154 328.307 205.172C327.892 204.18 327.684 203.117 327.684 201.983C327.684 200.9 327.882 199.888 328.277 198.946C328.671 198.005 329.228 197.175 329.947 196.456C330.666 195.737 331.491 195.175 332.422 194.77C333.364 194.365 334.376 194.163 335.459 194.163C336.391 194.163 337.226 194.36 337.965 194.755C338.714 195.15 339.367 195.651 339.924 196.258L339.742 194.588ZM335.733 206.144C336.421 206.144 337.044 205.967 337.6 205.613C338.157 205.258 338.598 204.782 338.922 204.185C339.246 203.578 339.407 202.91 339.407 202.181C339.407 201.442 339.246 200.774 338.922 200.176C338.598 199.579 338.157 199.103 337.6 198.749C337.044 198.394 336.421 198.217 335.733 198.217C335.034 198.217 334.401 198.394 333.834 198.749C333.268 199.103 332.817 199.584 332.483 200.191C332.149 200.789 331.982 201.452 331.982 202.181C331.982 202.91 332.149 203.578 332.483 204.185C332.827 204.782 333.283 205.258 333.85 205.613C334.417 205.967 335.044 206.144 335.733 206.144Z" fill="url(#paint28_linear_1427_1189)"/>
<path d="M172.153 76.4353H178.525V99.5205H172.153V76.4353ZM175.385 73.7805C174.462 73.7805 173.684 73.4727 173.053 72.8571C172.422 72.2415 172.107 71.4797 172.107 70.5717C172.107 69.6637 172.422 68.9019 173.053 68.2863C173.684 67.6706 174.454 67.3628 175.362 67.3628C176.27 67.3628 177.032 67.6706 177.647 68.2863C178.278 68.9019 178.594 69.6637 178.594 70.5717C178.594 71.4797 178.286 72.2415 177.67 72.8571C177.07 73.4727 176.308 73.7805 175.385 73.7805ZM203.633 100.121C201.386 100.121 199.293 99.6821 197.353 98.8049C195.43 97.9276 193.744 96.7195 192.298 95.1805C190.866 93.6261 189.751 91.8331 188.95 89.8016C188.15 87.7701 187.75 85.6078 187.75 83.3147C187.75 80.8523 188.189 78.6053 189.066 76.5738C189.943 74.5423 191.136 72.7879 192.644 71.3104C194.152 69.8176 195.861 68.671 197.769 67.8707C199.693 67.055 201.693 66.6472 203.771 66.6472C206.049 66.6472 208.28 67.1782 210.466 68.2401C212.651 69.302 214.606 70.9872 216.329 73.2957L210.65 76.343C209.666 75.2041 208.565 74.3577 207.349 73.8036C206.149 73.2496 204.925 72.9725 203.679 72.9725C202.432 72.9725 201.232 73.2265 200.077 73.7344C198.939 74.2422 197.923 74.9656 197.03 75.9044C196.138 76.8432 195.43 77.9512 194.906 79.2286C194.383 80.506 194.121 81.9142 194.121 83.4532C194.121 84.8845 194.368 86.2234 194.86 87.47C195.368 88.7166 196.061 89.8093 196.938 90.7481C197.815 91.6869 198.831 92.4257 199.985 92.9643C201.155 93.4876 202.401 93.7492 203.725 93.7492C204.541 93.7492 205.341 93.6338 206.126 93.4029C206.926 93.1567 207.688 92.8027 208.411 92.341C209.135 91.8793 209.796 91.3022 210.397 90.6096C211.012 89.9171 211.551 89.1168 212.012 88.2088H207.003V82.6683H219.515C219.608 85.0538 219.261 87.3007 218.476 89.4092C217.691 91.5176 216.568 93.3798 215.106 94.9958C213.644 96.5964 211.936 97.8507 209.981 98.7587C208.026 99.6667 205.91 100.121 203.633 100.121ZM228.234 99.5205V67.2012H248.687V73.5728H234.605V79.0209H245.594V85.3924H234.605V93.149H248.687V99.5205H228.234ZM258.371 99.5205L264.65 67.2012H270.029L277.531 86.9853L285.057 67.2012H290.436L296.715 99.5205H290.205L286.627 80.9831L279.725 99.1973H275.338L268.459 80.9831L264.858 99.5205H258.371Z" fill="url(#paint29_linear_1427_1189)"/>
<defs>
<linearGradient id="paint0_linear_1427_1189" x1="63.6924" y1="120.318" x2="54.6139" y2="121.079" gradientUnits="userSpaceOnUse">
<stop stop-color="#2C4B7C"/>
<stop offset="1" stop-color="#233C63"/>
</linearGradient>
<linearGradient id="paint1_linear_1427_1189" x1="75.0512" y1="33.3162" x2="75.1495" y2="100.245" gradientUnits="userSpaceOnUse">
<stop stop-color="#6BAA75"/>
<stop offset="1" stop-color="#FFF956"/>
</linearGradient>
<linearGradient id="paint2_linear_1427_1189" x1="66.5348" y1="0" x2="66.5348" y2="132.804" gradientUnits="userSpaceOnUse">
<stop stop-color="#1C304F"/>
<stop offset="1" stop-color="#406EB5"/>
</linearGradient>
<radialGradient id="paint3_radial_1427_1189" cx="0" cy="0" r="1" gradientUnits="userSpaceOnUse" gradientTransform="translate(65.815 64.3912) rotate(90) scale(68.6627)">
<stop offset="0.528846" stop-color="#1C304F"/>
<stop offset="1" stop-color="#406EB5"/>
</radialGradient>
<linearGradient id="paint4_linear_1427_1189" x1="117.044" y1="97.707" x2="157.482" y2="191.709" gradientUnits="userSpaceOnUse">
<stop stop-color="#6BAA75"/>
<stop offset="1" stop-color="#FFF956"/>
</linearGradient>
<linearGradient id="paint5_linear_1427_1189" x1="139.765" y1="95.8628" x2="156.406" y2="191.701" gradientUnits="userSpaceOnUse">
<stop stop-color="#406EB5"/>
<stop offset="1" stop-color="#1C304F"/>
</linearGradient>
<radialGradient id="paint6_radial_1427_1189" cx="0" cy="0" r="1" gradientUnits="userSpaceOnUse" gradientTransform="translate(31.8617 79.9388) rotate(-16.6543) scale(82.9657 87.9343)">
<stop offset="0.317606" stop-color="#1C304F"/>
<stop offset="1" stop-color="#406EB5"/>
</radialGradient>
<radialGradient id="paint7_radial_1427_1189" cx="0" cy="0" r="1" gradientUnits="userSpaceOnUse" gradientTransform="translate(56.0687 182.422) rotate(-16.6543) scale(82.9657 87.9343)">
<stop offset="0.317606" stop-color="#1C304F"/>
<stop offset="1" stop-color="#406EB5"/>
</radialGradient>
<linearGradient id="paint8_linear_1427_1189" x1="27.7484" y1="37.5391" x2="27.7484" y2="44.0358" gradientUnits="userSpaceOnUse">
<stop stop-color="#B5F8BF"/>
<stop offset="1" stop-color="#6BAA75"/>
</linearGradient>
<linearGradient id="paint9_linear_1427_1189" x1="29.807" y1="36.8535" x2="29.807" y2="43.3502" gradientUnits="userSpaceOnUse">
<stop stop-color="#B5F8BF"/>
<stop offset="1" stop-color="#6BAA75"/>
</linearGradient>
<linearGradient id="paint10_linear_1427_1189" x1="22.5707" y1="32.7373" x2="22.5707" y2="39.234" gradientUnits="userSpaceOnUse">
<stop stop-color="#B5F8BF"/>
<stop offset="1" stop-color="#6BAA75"/>
</linearGradient>
<linearGradient id="paint11_linear_1427_1189" x1="0.928102" y1="0" x2="0.928102" y2="6.49672" gradientUnits="userSpaceOnUse">
<stop stop-color="#B5F8BF"/>
<stop offset="1" stop-color="#6BAA75"/>
</linearGradient>
<linearGradient id="paint12_linear_1427_1189" x1="10.2367" y1="44.8018" x2="10.2367" y2="51.2985" gradientUnits="userSpaceOnUse">
<stop stop-color="#B7FAC1"/>
<stop offset="1" stop-color="#6BAA75"/>
</linearGradient>
<linearGradient id="paint13_linear_1427_1189" x1="12.0355" y1="46.0186" x2="12.0355" y2="52.5153" gradientUnits="userSpaceOnUse">
<stop stop-color="#B7FAC1"/>
<stop offset="1" stop-color="#6BAA75"/>
</linearGradient>
<linearGradient id="paint14_linear_1427_1189" x1="10.8969" y1="37.7725" x2="10.8969" y2="44.2692" gradientUnits="userSpaceOnUse">
<stop stop-color="#B7FAC1"/>
<stop offset="1" stop-color="#6BAA75"/>
</linearGradient>
<linearGradient id="paint15_linear_1427_1189" x1="0.928102" y1="0" x2="0.928102" y2="6.49672" gradientUnits="userSpaceOnUse">
<stop stop-color="#B7FAC1"/>
<stop offset="1" stop-color="#6BAA75"/>
</linearGradient>
<linearGradient id="paint16_linear_1427_1189" x1="24.3324" y1="59.7012" x2="24.3324" y2="66.1979" gradientUnits="userSpaceOnUse">
<stop stop-color="#B6F8C0"/>
<stop offset="1" stop-color="#6BAA75"/>
</linearGradient>
<linearGradient id="paint17_linear_1427_1189" x1="22.2738" y1="59.0283" x2="22.2738" y2="65.525" gradientUnits="userSpaceOnUse">
<stop stop-color="#B6F8C0"/>
<stop offset="1" stop-color="#6BAA75"/>
</linearGradient>
<linearGradient id="paint18_linear_1427_1189" x1="25.6527" y1="66.6396" x2="25.6527" y2="73.1364" gradientUnits="userSpaceOnUse">
<stop stop-color="#B6F8C0"/>
<stop offset="1" stop-color="#6BAA75"/>
</linearGradient>
<linearGradient id="paint19_linear_1427_1189" x1="0.928102" y1="0" x2="0.928102" y2="6.49672" gradientUnits="userSpaceOnUse">
<stop stop-color="#B6F8C0"/>
<stop offset="1" stop-color="#6BAA75"/>
</linearGradient>
<linearGradient id="paint20_linear_1427_1189" x1="165.113" y1="138.071" x2="614.916" y2="138.071" gradientUnits="userSpaceOnUse">
<stop stop-color="#70AF7A"/>
<stop offset="1" stop-color="#4A7FD1"/>
</linearGradient>
<linearGradient id="paint21_linear_1427_1189" x1="165.114" y1="138.078" x2="614.917" y2="138.078" gradientUnits="userSpaceOnUse">
<stop stop-color="#70AF7A"/>
<stop offset="1" stop-color="#4A7FD1"/>
</linearGradient>
<linearGradient id="paint22_linear_1427_1189" x1="165.114" y1="138.071" x2="614.917" y2="138.071" gradientUnits="userSpaceOnUse">
<stop stop-color="#70AF7A"/>
<stop offset="1" stop-color="#4A7FD1"/>
</linearGradient>
<linearGradient id="paint23_linear_1427_1189" x1="165.114" y1="138.078" x2="614.916" y2="138.078" gradientUnits="userSpaceOnUse">
<stop stop-color="#70AF7A"/>
<stop offset="1" stop-color="#4A7FD1"/>
</linearGradient>
<linearGradient id="paint24_linear_1427_1189" x1="165.112" y1="138.078" x2="614.915" y2="138.078" gradientUnits="userSpaceOnUse">
<stop stop-color="#70AF7A"/>
<stop offset="1" stop-color="#4A7FD1"/>
</linearGradient>
<linearGradient id="paint25_linear_1427_1189" x1="165.117" y1="138.078" x2="614.92" y2="138.078" gradientUnits="userSpaceOnUse">
<stop stop-color="#70AF7A"/>
<stop offset="1" stop-color="#4A7FD1"/>
</linearGradient>
<linearGradient id="paint26_linear_1427_1189" x1="165.116" y1="138.071" x2="614.919" y2="138.071" gradientUnits="userSpaceOnUse">
<stop stop-color="#70AF7A"/>
<stop offset="1" stop-color="#4A7FD1"/>
</linearGradient>
<linearGradient id="paint27_linear_1427_1189" x1="153.017" y1="138.071" x2="614.919" y2="138.071" gradientUnits="userSpaceOnUse">
<stop offset="0.00480769" stop-color="#FFF956"/>
<stop offset="0.0817308" stop-color="#70AF7A"/>
<stop offset="1" stop-color="#4A7FD1"/>
</linearGradient>
<linearGradient id="paint28_linear_1427_1189" x1="170.807" y1="198.773" x2="345.807" y2="198.773" gradientUnits="userSpaceOnUse">
<stop stop-color="#26416B"/>
<stop offset="1" stop-color="#4A7FD1"/>
</linearGradient>
<linearGradient id="paint29_linear_1427_1189" x1="169.383" y1="83.0205" x2="300.383" y2="83.0205" gradientUnits="userSpaceOnUse">
<stop stop-color="#26416B"/>
<stop offset="1" stop-color="#4A7FD1"/>
</linearGradient>
</defs>
</svg>
